<svg xmlns="http://www.w3.org/2000/svg" width="170.001" height="30" viewBox="0 0 170.001 30">
  <g id="Group_1" data-name="Group 1" transform="translate(-446 -340)">
    <path id="Icon_akar-star" data-name="Icon akar-star" d="M16.611,3.95a1.491,1.491,0,0,1,2.778,0l3.1,8.6a1.485,1.485,0,0,0,1.389.95h7.631a1.46,1.46,0,0,1,.917,2.615L27,21a1.452,1.452,0,0,0-.483,1.638l1.983,8.4a1.478,1.478,0,0,1-2.262,1.679l-7.375-4.68a1.5,1.5,0,0,0-1.725,0l-7.375,4.68A1.479,1.479,0,0,1,7.5,31.043l1.983-8.4A1.452,1.452,0,0,0,9,21L3.57,16.115A1.46,1.46,0,0,1,4.485,13.5h7.63a1.484,1.484,0,0,0,1.389-.949l3.1-8.6Z" transform="translate(443.001 337)" fill="#f0b000"/>
    <path id="Icon_akar-star-2" data-name="Icon akar-star" d="M16.611,3.95a1.491,1.491,0,0,1,2.778,0l3.1,8.6a1.485,1.485,0,0,0,1.389.95h7.631a1.46,1.46,0,0,1,.917,2.615L27,21a1.452,1.452,0,0,0-.483,1.638l1.983,8.4a1.478,1.478,0,0,1-2.262,1.679l-7.375-4.68a1.5,1.5,0,0,0-1.725,0l-7.375,4.68A1.479,1.479,0,0,1,7.5,31.043l1.983-8.4A1.452,1.452,0,0,0,9,21L3.57,16.115A1.46,1.46,0,0,1,4.485,13.5h7.63a1.484,1.484,0,0,0,1.389-.949l3.1-8.6Z" transform="translate(478.001 337)" fill="#f0b000"/>
    <path id="Icon_akar-star-3" data-name="Icon akar-star" d="M16.611,3.95a1.491,1.491,0,0,1,2.778,0l3.1,8.6a1.485,1.485,0,0,0,1.389.95h7.631a1.46,1.46,0,0,1,.917,2.615L27,21a1.452,1.452,0,0,0-.483,1.638l1.983,8.4a1.478,1.478,0,0,1-2.262,1.679l-7.375-4.68a1.5,1.5,0,0,0-1.725,0l-7.375,4.68A1.479,1.479,0,0,1,7.5,31.043l1.983-8.4A1.452,1.452,0,0,0,9,21L3.57,16.115A1.46,1.46,0,0,1,4.485,13.5h7.63a1.484,1.484,0,0,0,1.389-.949l3.1-8.6Z" transform="translate(513.001 337)" fill="#f0b000"/>
    <path id="Icon_akar-star-4" data-name="Icon akar-star" d="M16.611,3.95a1.491,1.491,0,0,1,2.778,0l3.1,8.6a1.485,1.485,0,0,0,1.389.95h7.631a1.46,1.46,0,0,1,.917,2.615L27,21a1.452,1.452,0,0,0-.483,1.638l1.983,8.4a1.478,1.478,0,0,1-2.262,1.679l-7.375-4.68a1.5,1.5,0,0,0-1.725,0l-7.375,4.68A1.479,1.479,0,0,1,7.5,31.043l1.983-8.4A1.452,1.452,0,0,0,9,21L3.57,16.115A1.46,1.46,0,0,1,4.485,13.5h7.63a1.484,1.484,0,0,0,1.389-.949l3.1-8.6Z" transform="translate(548.001 337)" fill="#f0b000"/>
    <path id="Icon_akar-star-5" data-name="Icon akar-star" d="M16.611,3.95a1.491,1.491,0,0,1,2.778,0l3.1,8.6a1.485,1.485,0,0,0,1.389.95h7.631a1.46,1.46,0,0,1,.917,2.615L27,21a1.452,1.452,0,0,0-.483,1.638l1.983,8.4a1.478,1.478,0,0,1-2.262,1.679l-7.375-4.68a1.5,1.5,0,0,0-1.725,0l-7.375,4.68A1.479,1.479,0,0,1,7.5,31.043l1.983-8.4A1.452,1.452,0,0,0,9,21L3.57,16.115A1.46,1.46,0,0,1,4.485,13.5h7.63a1.484,1.484,0,0,0,1.389-.949l3.1-8.6Z" transform="translate(583.001 337)" fill="#f0b000"/>
  </g>
</svg>
